<svg width="705" height="151" viewBox="0 0 705 151" fill="none" xmlns="http://www.w3.org/2000/svg">
<path d="M20.4 142.6C18.6 148.8 14.2 151 9.6 151C4.6 151 1.19209e-07 148 1.19209e-07 141.6C1.19209e-07 139.8 0.4 138 1 135.8L14.2 94C16 88.2 18 86.2 23.8 86.2H69.4L52.6 33.2L42.4 68.4C40.8 73.8 36.6 76.2 32.6 76.2C27.8 76.2 23 72.8 23 66.8C23 65.6 23.4 64.2 23.8 62.6L40.6 9.19999C42.2 3.79999 46.6 0.199998 53.2 0.199998C59.8 0.199998 63.8 3.79999 65.6 9.19999L93.4 96.6C93.8 97.8 94 99 94 100C94 104 91.2 107 87 107H31.4L20.4 142.6ZM82.2 131.8C81.6 129.8 81.2 128 81.2 126.4C81.2 119.6 86.6 116.2 91.6 116.2C97.2 116.2 100.8 118.8 102.6 124.8L106 135.8C106.6 137.8 107 139.8 107 141.4C107 148 102.2 151 96.8 151C92 151 87.8 149 85.8 143L82.2 131.8ZM171.486 63.8C161.486 63.8 151.286 67.4 151.286 80.4V82C151.286 87.8 146.886 92 140.886 92C134.886 92 130.486 87.8 130.486 82V80.4C130.486 55.2 149.086 43 171.486 43H187.486C193.686 43 197.886 47.2 197.886 53.4C197.886 59.6 193.686 63.8 187.486 63.8H171.486ZM171.486 130.2H187.486C193.686 130.2 197.886 134.4 197.886 140.6C197.886 146.8 193.686 151 187.486 151H171.486C149.086 151 130.486 138.8 130.486 113.6V112C130.486 106.2 134.886 102 140.886 102C146.886 102 151.286 106.2 151.286 112V113.6C151.286 126.6 161.486 130.2 171.486 130.2ZM300.167 43C305.967 43 310.567 47.2 310.567 53V110.2C310.567 116 305.967 120.2 300.167 120.2C294.367 120.2 289.767 116 289.767 110.2V53C289.767 47.2 294.367 43 300.167 43ZM310.567 140.6C310.567 146.8 306.367 151 300.167 151H270.367C242.167 151 230.567 141 230.567 111.4V53C230.567 47.2 235.167 43 240.967 43C246.767 43 251.367 47.2 251.367 53V108.4C251.367 124.6 253.167 130.2 273.367 130.2H300.167C306.367 130.2 310.567 134.4 310.567 140.6ZM351.463 53.4C351.463 47.2 355.663 43 361.863 43H429.663C457.863 43 469.463 53 469.463 82.6V141C469.463 146.8 464.863 151 459.063 151C453.263 151 448.663 146.8 448.663 141V85.6C448.663 69.4 446.863 63.8 426.663 63.8H361.863C355.663 63.8 351.463 59.6 351.463 53.4ZM361.863 73.8C367.663 73.8 372.263 78 372.263 83.8V141C372.263 146.8 367.663 151 361.863 151C356.063 151 351.463 146.8 351.463 141V83.8C351.463 78 356.063 73.8 361.863 73.8ZM410.463 73.8C416.263 73.8 420.863 78 420.863 83.8V141C420.863 146.8 416.263 151 410.463 151C404.663 151 400.063 146.8 400.063 141V83.8C400.063 78 404.663 73.8 410.463 73.8ZM587.248 95.6C587.248 102 584.848 104.6 578.648 104.6H545.248C539.448 104.6 535.248 101.4 535.248 95C535.248 88.6 539.448 85.4 545.248 85.4H566.448V80.4C566.448 64.8 556.448 60.6 546.648 60.6C536.648 60.6 526.848 64.8 526.848 80.4V82C526.848 87.8 522.448 92 516.448 92C510.448 92 506.048 87.8 506.048 82V80.4C506.048 53.8 524.448 41 546.648 41C568.848 41 587.248 53.8 587.248 80.4V95.6ZM546.648 151C524.448 151 506.048 138.8 506.048 113.6V112C506.048 106.2 510.448 102 516.448 102C522.448 102 526.848 106.2 526.848 112V113.6C526.848 127 536.648 130.6 546.648 130.6H574.648C580.448 130.6 584.648 135 584.648 140.8C584.648 146.6 580.448 151 574.648 151H546.648ZM623.517 53.4C623.517 47.2 627.717 43 633.917 43H664.717C692.917 43 704.517 53 704.517 82.6V141C704.517 146.8 699.917 151 694.117 151C688.317 151 683.717 146.8 683.717 141V85.6C683.717 69.4 681.917 63.8 661.717 63.8H633.917C627.717 63.8 623.517 59.6 623.517 53.4ZM633.917 73.8C639.717 73.8 644.317 78 644.317 83.8V141C644.317 146.8 639.717 151 633.917 151C628.117 151 623.517 146.8 623.517 141V83.8C623.517 78 628.117 73.8 633.917 73.8Z" fill="url(#paint0_linear_159_2)"/>
<defs>
<linearGradient id="paint0_linear_159_2" x1="529.59" y1="51.1592" x2="24.7081" y2="53.3487" gradientUnits="userSpaceOnUse">
<stop stop-color="#59B1F8"/>
<stop offset="0.5" stop-color="#66317C"/>
<stop offset="1" stop-color="#FF6558"/>
</linearGradient>
</defs>
</svg>
